<svg id="logo" xmlns="http://www.w3.org/2000/svg" width="266" height="76.101" viewBox="0 0 264.993 75.813">
  <defs>
    <style>
      .cls-1 {
        font-size: 60px;
        font-family: Heebo;
        font-weight: 800;
      }

      .cls-1, .cls-2 {
        fill: #fff;
      }

      .cls-2 {
        fill-rule: evenodd;
      }
    </style>
  </defs>
  <text id="flexor." class="cls-1" x="97.125" y="59.906">flexor.</text>
  <path class="cls-2" d="M45.872,77.921h0m0.131,0h0m-0.2,0h0m0.233,0h0m-0.3,0h0m0.336,0h0m-0.406,0h0m0.45,0h0m-0.519,0h0m0.551,0h0m0.034,0h0m0.032,0h0m0.037,0h0m0.043,0h0m0.034,0h0m0.033,0h0m0.036,0h0m0.037,0h0m0.039,0h0m0.032,0h0m0.035,0h0m0.035,0h0m0.075,0-0.068,0,0.068,0m0.034,0h0m0.034,0h0m0.037,0h0m0.107,0-0.1,0,0.1,0m0.035,0h0m0.037,0h0m0.1,0-0.1,0,0.1,0m0.035,0h0m-2.3-6.124h0m0.089,0h0m-0.136,0h0m-0.051,0h0m0.239,0h0m-0.293,0h0m0.339,0h0m-0.386,0h0m-0.046,0h0m0.478,0h0m-0.528,0h0m-0.055,0h0m0.633,0h0m-0.679,0h0m0.719,0h0m-0.766,0h0m-0.048,0h0m0.868,0h0m-0.926,0h0m-0.047,0h0m-0.044,0h0m-0.045,0h0m-0.061,0h0m-0.044,0h0m-0.044,0h0m-0.037,0h0m-0.072,0h0m-0.044,0h0m-0.04,0h0m-0.155,0h0m-0.039,0h0M30.456,8.238h0m-0.229,0h0m-0.076,0h0m-0.078,0h0M30,8.232h0m-0.524,0h0m0.449,0h0m-0.413,0h0m0.336,0h0m-0.293,0h0m0.034,0h0m0.185,0h0m-0.143,0h0m0.068,0h0M26.155,2.145c-18.9,1.43-24.287,26.742-24.287,46.6,0,20.322,23.519,29.082,43.728,29.179A70.518,70.518,0,0,1,28.283,75.7,47.43,47.43,0,0,1,10.326,56.858,19.137,19.137,0,0,1,7.89,47.324c0-13.83,3.117-30.821,13.271-36.845C20.555,10.766,10.024,15.921,3.7,29.4,6.564,15.384,13.168,3.127,26.155,2.145m0.2-.014-0.2.014,0.2-.014m0.08-.005-0.078,0,0.078,0m0.039,0-0.036,0,0.036,0m0.081,0-0.077,0,0.077,0m0.041,0-0.038,0,0.038,0m0.04,0-0.039,0,0.039,0m0.038,0-0.036,0,0.036,0m0.08,0-0.075,0,0.075,0m0.04,0-0.033,0,0.033,0m0.042,0-0.038,0,0.038,0m0.038,0h0m0.044,0-0.036,0,0.036,0m0.038,0h0m0.039,0h0m0.044,0h0m0.037,0h0m1.992,0a69.983,69.983,0,0,1,15.9,2.259C50.824,7.8,59.791,14.088,66.233,23.208A18.467,18.467,0,0,1,70.11,34.459c0,13.629-5.261,29.2-15.978,34.989A90.446,90.446,0,0,0,71.426,57.694h0C66.789,68.786,58.7,77.369,47.075,77.9c19.518-.882,29.056-24.457,29.056-44.509,0-20.034-26.9-30.872-47.066-31.292M29,2.093h0m-1.844,0-0.074,0,0.074,0m0.04,0h0m0.044,0h0m1.569,0,0.191,0-0.191,0m-1.532,0h0m1.468,0h0m-1.425,0h0m1.363,0h0m-1.322,0h0m1.258,0h0m-1.221,0h0m1.158,0h0m-1.111,0h0m1.047,0h0m-1.01,0h0m0.946,0h0m-0.9,0h0m0.041,0h0m0.735,0h0m-0.7,0h0m0.634,0h0m-0.587,0h0m0.525,0h0m-0.488,0h0m0.425,0h0m-0.386,0h0m0.323,0h0m-0.278,0h0m0.215,0h0m-0.177,0h0m0.113,0h0m-0.065,0h0m0,0h0m-1.7.063h0m0.2-.014h0m0.08-.005h0m0.04,0h0m0.081,0h0m0.038,0h0m0.042,0h0m0.041,0h0m0.082,0h0m0.038,0h0m0.042,0h0m0.04,0h0m0.037,0h0m0.045,0h0M27,2.1h0m0.042,0h0m0.041,0h0m1.981,0h0M29,2.093h0m-1.836,0h0m0.038,0h0m0.041,0h0m1.564,0h0m-1.521,0h0m1.458,0h0m-1.421,0h0m1.356,0h0m-1.31,0h0m1.247,0h0m-1.208,0h0m1.144,0h0m-1.1,0h0m1.041,0h0m-1,0h0m0.935,0h0m-0.9,0h0m0.046,0h0m0.723,0h0m-0.684,0h0m0.62,0h0m-0.582,0h0m0.518,0h0m-0.473,0h0m0.409,0h0m-0.371,0h0m0.308,0h0m-0.062,0h0m-0.2,0h0m0.139,0h0m-0.1,0h0m0.037,0h-0.7l-0.074,0H26.915l-0.036,0H26.834l-0.038,0h0l-0.033,0H26.752l-0.075,0H26.671l-0.036,0h0l-0.039,0h0l-0.038,0h0l-0.077,0h0l-0.036,0h0l-0.078,0h0l-0.2.014h0C13.168,3.127,6.564,15.384,3.7,29.4c6.323-13.476,16.854-18.631,17.46-18.919a16.311,16.311,0,0,1,8.312-2.246H30.23l0.226,0h0c12.656,0.207,28.562,5.341,35.777,14.97C59.791,14.088,50.824,7.8,44.967,4.354a69.983,69.983,0,0,0-15.9-2.259H29l-0.191,0H27.857M67.343,24.844l-0.007-.011,0.007,0.011h0M13,46.121h0c0-14.311,3.995-32.672,18.2-32.672S65,21.058,65,35.369h0c0,14.311-6.939,31.185-21.143,31.185S13,60.432,13,46.121h0M29.664,8.231H29.473a16.3,16.3,0,0,0-8.285,2.234l-0.027.013C11.007,16.5,7.89,33.494,7.89,47.324a19.137,19.137,0,0,0,2.436,9.535l-0.018-.038C15.936,66.87,30.435,71.48,43.548,71.758h0.041l0.153,0h1.4a19.392,19.392,0,0,0,7.447-1.577h0q0.78-.337,1.526-0.737l0.014-.007C64.849,63.661,70.11,48.088,70.11,34.459a18.467,18.467,0,0,0-3.877-11.251l0.051,0.072C59.095,13.606,43.144,8.445,30.457,8.238h0l-0.226,0H29.664m37.672,16.6,0.007,0.011h0l-0.007-.011M30.457,8.238c12.687,0.208,28.638,5.368,35.828,15.043l-0.051-.072c-7.215-9.629-23.12-14.764-35.777-14.97m-0.226,0,0.226,0-0.226,0m-0.075,0h0m-0.074,0h0m-0.075,0h0m-0.533,0a16.311,16.311,0,0,0-8.312,2.246l0.027-.013a16.3,16.3,0,0,1,8.285-2.234m0.457,0h0m-0.418,0h0m0.345,0h0m-0.31,0h0m0.04,0h0m0.193,0h0m-0.158,0h0m0.083,0h0m-0.041,0h0m16.2,69.69h0m0.117,0h0m0.035,0h0m-0.218,0h0m0.251,0h0m-0.318,0h0m0.352,0h0m-0.42,0h0m0.459,0h0m-0.527,0h0m0.565,0h0m0.034,0h0m0.034,0h0m0.032,0h0m0.038,0h0m0.038,0h0m0.036,0h0m0.033,0h0m0.034,0h0m0.036,0h0m0.041,0h0m0.033,0h0m0.034,0h0m0.07,0h0m0.037,0h0m0.035,0h0m0.033,0h0m0.107,0h0m0.035,0h0m0.034,0h0m0.108,0h0m0.034,0h0M10.326,56.858A47.43,47.43,0,0,0,28.283,75.7,70.518,70.518,0,0,0,45.6,77.92h0.985l0.068,0h0.107l0.1,0h0.072l0.1,0h0.038c11.628-.527,19.713-9.109,24.35-20.2A90.446,90.446,0,0,1,54.132,69.448a19.305,19.305,0,0,1-8.988,2.321h-1.4l-0.153,0H43.548c-13.1-.278-27.58-4.876-33.222-14.9M44.813,71.772h0m-0.06,0h0m0.116,0h0m-0.162,0h0m-0.045,0h0m0.255,0h0m-0.312,0h0m-0.05,0h0m0.416,0h0m-0.462,0h0m-0.046,0h0m0.563,0h0m-0.623,0h0m0.672,0h0m-0.718,0h0m-0.048,0h0m0.833,0h0m-0.878,0h0m-0.06,0h0m-0.047,0h0m-0.048,0h0m-0.066,0h0m-0.047,0h0m-0.043,0h0m-0.045,0h0m-0.076,0h0m-0.038,0h0m-0.044,0h0m-0.159,0,0.153,0-0.153,0m-0.041,0h0m10.584-2.31-0.014.007q-0.745.4-1.526,0.737h0a19.392,19.392,0,0,1-7.447,1.577,19.305,19.305,0,0,0,8.988-2.321M10.308,56.82l0.018,0.038c5.642,10.024,20.124,14.622,33.222,14.9C30.435,71.48,15.936,66.87,10.308,56.82M35.57,45.894v0.016h0V45.894m0-.016s0,0.007,0,.011,0-.008,0-0.011m0-.016s0,0.007,0,.011,0-.007,0-0.011m0-.017s0,0.008,0,.012,0-.008,0-0.012m0-.02c0,0.005,0,.01,0,0.016s0-.01,0-0.016m0-.016s0,0.007,0,.011,0-.007,0-0.011m0-.016s0,0.006,0,.009,0-.006,0-0.009m0-.016s0,0.006,0,.009,0-.006,0-0.009m0-.016v0m0-.021v0m0-.015v0m0-.015v0m0-.014v0m0-.053h0M35.575,35.426h0m0-.015v0s0,0,0,0m0-.015v0m0-.024v0m0-.016s0,0,0,.007,0,0,0-.007m0-.016s0,0.005,0,.008,0-.005,0-0.008m0-.018s0,0.007,0,.011,0-.007,0-0.011m0-.019v0m0-.016s0,0.007,0,.011,0-.007,0-0.011m0-.016s0,0.007,0,.011,0-.008,0-0.011m0-.021v0m0-3.394v0.016h0V31.855m0-.016s0,0.007,0,.011,0-.007,0-0.011m0-.016s0,0.007,0,.01,0-.007,0-0.01m0-.016s0,0.006,0,.01,0-.006,0-0.01m0-.016v0m0-.021v0m0-.016v0m0-.016v0m0-.015v0m0-.014v0m13.361-8.26H31.7a2.655,2.655,0,0,0-2.645,2.665V54.57A2.655,2.655,0,0,0,31.7,57.235h1.228A2.655,2.655,0,0,0,35.57,54.57h0a2.655,2.655,0,0,1-2.645,2.665H31.7a2.655,2.655,0,0,1-2.645-2.665V43.356h8.4a2.627,2.627,0,0,1,.758-0.111h8.029a2.665,2.665,0,0,0,0-5.33H38.215a2.622,2.622,0,0,1-.875-0.149H29.052V29.287h8.515a2.637,2.637,0,0,1,.648-0.08H48.936a2.655,2.655,0,0,0,2.645-2.665V26.114a2.655,2.655,0,0,0-2.645-2.665M35.575,35.426a2.664,2.664,0,0,0,1.764,2.339h0.009a2.662,2.662,0,0,1-1.773-2.339m0-.012s0,0.008,0,.012,0-.008,0-0.012m0-.014v0m0-.026c0,0.007,0,.015,0,0.022s0-.015,0-0.022m0-.011s0,0.006,0,.009,0-.006,0-0.009m0-.015v0.008s0-.005,0-0.008m0-.015s0,0,0,.007,0,0,0-.007m0-.015s0,0,0,0,0,0,0,0m0-.02s0,0,0,.005,0,0,0-.005m0-.016v0m0-.016s0,0,0,0,0,0,0,0m0-3.415s0,0,0,.005,0,0,0-.005m0-.017v0m0-.017s0,0,0,.007,0,0,0-.007m0-.016s0,0,0,.006,0,0,0-.006m0-.016s0,0,0,.006,0,0,0-.006m0-.023v0m0-.017v0m0-.016v0m0-.016v0m2.005-2.426H37.567a2.661,2.661,0,0,0-1.992,2.422,2.659,2.659,0,0,1,2.005-2.422m-0.013,0H29.052v8.478H37.34a2.664,2.664,0,0,1-1.764-2.339h0s0-.008,0-0.012V35.4c0-.007,0-0.015,0-0.022v0s0-.006,0-0.009,0,0,0-.007V35.348s0-.005,0-0.008,0,0,0-.007,0-.007,0-0.011,0,0,0,0V35.3s0,0,0-.005,0-.007,0-0.011V35.281s0-.008,0-0.011,0,0,0,0V35.25h0V31.872h0V31.855s0,0,0-.005,0-.007,0-0.011V31.833s0-.007,0-0.01,0,0,0-.007,0-.006,0-0.01,0,0,0-.006v-0.01s0,0,0-.006V31.709a2.661,2.661,0,0,1,1.992-2.422m-2,16.6s0,0,0,.005,0,0,0-.005m0-.017v0m0-.016s0,0,0,.006,0,0,0-.006m0-.016s0,0,0,0,0,0,0,0m0-.02s0,0,0,0,0,0,0,0m0-.017v0m0-.016v0m0-.016v0m0-.023s0,0.01,0,.014,0-.01,0-0.014m0-.016v0m0-.016v0m0-.015v0m0-.056c0,0.017,0,.034,0,0.052,0-.017,0-0.034,0-0.052m1.879-2.289h0a2.662,2.662,0,0,0-1.874,2.288,2.662,2.662,0,0,1,1.879-2.288m0,0h-8.4V54.57A2.655,2.655,0,0,0,31.7,57.235h1.228A2.655,2.655,0,0,0,35.57,54.57v-8.66h0V45.894s0,0,0-.005,0-.007,0-0.011V45.872s0-.007,0-0.011,0,0,0-.006,0-.008,0-0.012,0,0,0,0,0-.01,0-0.016,0,0,0,0,0-.007,0-0.011V45.8s0-.006,0-0.009V45.786s0-.006,0-0.009V45.761s0-.01,0-0.014V45.7c0-.017,0-0.034,0-0.052h0a2.662,2.662,0,0,1,1.874-2.288" transform="translate(-0.941 -2.094)"/>
</svg>
