<svg id="logo" xmlns="http://www.w3.org/2000/svg" width="275" height="77.829" viewBox="0 0 267.875 75.813">
  <defs>
    <style>
      .cls-1 {
        font-size: 60px;
        font-family: Heebo;
        font-weight: 800;
      }

      .cls-2, .cls-3 {
        fill: #fe6c61;
      }

      .cls-3 {
        fill-rule: evenodd;
      }
    </style>
  </defs>
  <text id="flexor." class="cls-1" x="97.125" y="59.906">flexor<tspan class="cls-2">.</tspan></text>
  <path class="cls-3" d="M44.872,75.921h0m0.131,0h0m-0.2,0h0m0.233,0h0m-0.3,0h0m0.336,0h0m-0.406,0h0m0.45,0h0m-0.519,0h0m0.551,0h0m0.034,0h0m0.032,0h0m0.037,0h0m0.043,0h0m0.034,0h0m0.033,0h0m0.036,0h0m0.037,0h0m0.039,0h0m0.032,0h0m0.035,0h0m0.035,0h0m0.075,0-0.068,0,0.068,0m0.034,0h0m0.034,0h0m0.037,0h0m0.107,0-0.1,0,0.1,0m0.035,0h0m0.037,0h0m0.1,0-0.1,0,0.1,0m0.035,0h0m-2.3-6.124h0m0.089,0h0m-0.136,0h0m-0.051,0h0m0.239,0h0m-0.293,0h0m0.339,0h0m-0.386,0h0m-0.046,0h0m0.478,0h0m-0.528,0h0m-0.055,0h0m0.633,0h0m-0.679,0h0m0.719,0h0m-0.766,0h0m-0.048,0h0m0.868,0h0m-0.926,0h0m-0.047,0h0m-0.044,0h0m-0.045,0h0m-0.061,0h0m-0.044,0h0m-0.044,0h0m-0.037,0h0m-0.072,0h0m-0.044,0h0m-0.04,0h0m-0.155,0h0m-0.039,0h0M29.456,6.238h0m-0.229,0h0m-0.076,0h0m-0.078,0h0M29,6.232h0m-0.524,0h0m0.449,0h0m-0.413,0h0m0.336,0h0m-0.293,0h0m0.034,0h0m0.185,0h0m-0.143,0h0m0.068,0h0M25.155,0.145C6.252,1.575.868,26.887,0.868,46.741c0,20.322,23.519,29.082,43.728,29.179A70.518,70.518,0,0,1,27.283,73.7,47.431,47.431,0,0,1,9.326,54.858,19.137,19.137,0,0,1,6.89,45.324c0-13.83,3.117-30.821,13.271-36.845C19.555,8.766,9.024,13.921,2.7,27.4,5.564,13.384,12.168,1.127,25.155.145m0.2-.014-0.2.014,0.2-.014m0.08-.005-0.078,0,0.078,0m0.039,0-0.036,0,0.036,0m0.081,0-0.077,0,0.077,0m0.041,0-0.038,0,0.038,0m0.04,0-0.039,0,0.039,0m0.038,0-0.036,0,0.036,0m0.08,0-0.075,0,0.075,0m0.04,0-0.033,0,0.033,0m0.042,0-0.038,0,0.038,0m0.038,0h0m0.044,0-0.036,0,0.036,0m0.038,0h0m0.039,0h0m0.044,0h0m0.037,0h0m1.992,0a69.983,69.983,0,0,1,15.9,2.259C49.824,5.8,58.791,12.088,65.233,21.208A18.467,18.467,0,0,1,69.11,32.459c0,13.629-5.261,29.2-15.978,34.989A90.446,90.446,0,0,0,70.426,55.694h0C65.789,66.786,57.7,75.369,46.075,75.9c19.518-.882,29.056-24.457,29.056-44.509,0-20.034-26.9-30.872-47.066-31.292M28,0.093h0m-1.844,0-0.074,0,0.074,0m0.04,0h0m0.044,0h0m1.569,0,0.191,0-0.191,0m-1.532,0h0m1.468,0h0m-1.425,0h0m1.363,0h0m-1.322,0h0m1.258,0h0m-1.221,0h0m1.158,0h0m-1.111,0h0m1.047,0h0m-1.01,0h0m0.946,0h0m-0.9,0h0m0.041,0h0m0.735,0h0m-0.7,0h0m0.634,0h0m-0.587,0h0m0.525,0h0m-0.488,0h0m0.425,0h0m-0.386,0h0m0.323,0h0m-0.278,0h0m0.215,0h0m-0.177,0h0m0.113,0h0m-0.065,0h0m0,0h0m-1.7.063h0m0.2-.014h0m0.08-.005h0m0.04,0h0m0.081,0h0m0.038,0h0m0.042,0h0m0.041,0h0m0.082,0h0m0.038,0h0m0.042,0h0m0.04,0h0m0.037,0h0m0.045,0h0M26,0.1h0m0.042,0h0m0.041,0h0m1.981,0h0M28,0.093h0m-1.836,0h0m0.038,0h0m0.041,0h0m1.564,0h0m-1.521,0h0m1.458,0h0m-1.421,0h0m1.356,0h0m-1.31,0h0m1.247,0h0m-1.208,0h0m1.144,0h0m-1.1,0h0m1.041,0h0m-1,0h0m0.935,0h0m-0.9,0h0m0.046,0h0m0.723,0h0m-0.684,0h0m0.62,0h0m-0.582,0h0m0.518,0h0m-0.473,0h0m0.409,0h0m-0.371,0h0m0.308,0h0m-0.062,0h0m-0.2,0h0m0.139,0h0m-0.1,0h0m0.037,0h-0.7l-0.074,0H25.915l-0.036,0H25.834l-0.038,0h0l-0.033,0H25.752l-0.075,0H25.671l-0.036,0h0l-0.039,0h0l-0.038,0h0l-0.077,0h0l-0.036,0h0l-0.078,0h0l-0.2.014h0C12.168,1.127,5.564,13.384,2.7,27.4,9.024,13.921,19.555,8.766,20.161,8.478a16.31,16.31,0,0,1,8.312-2.246H29.23l0.226,0h0c12.656,0.207,28.562,5.341,35.777,14.97C58.791,12.088,49.824,5.8,43.967,2.354A69.983,69.983,0,0,0,28.065.095H28l-0.191,0H26.857M66.343,22.844l-0.007-.011,0.007,0.011h0M12,44.121h0c0-14.311,3.995-32.672,18.2-32.672S64,19.058,64,33.369h0c0,14.311-6.939,31.185-21.143,31.185S12,58.432,12,44.121h0M28.664,6.231H28.473a16.3,16.3,0,0,0-8.285,2.234l-0.027.013C10.007,14.5,6.89,31.494,6.89,45.324a19.137,19.137,0,0,0,2.436,9.535L9.308,54.82C14.936,64.87,29.435,69.48,42.548,69.758h0.041l0.153,0h1.4a19.392,19.392,0,0,0,7.447-1.577h0q0.78-.337,1.526-0.737l0.014-.007C63.849,61.661,69.11,46.088,69.11,32.459a18.467,18.467,0,0,0-3.877-11.251l0.051,0.072C58.095,11.606,42.144,6.445,29.457,6.238h0l-0.226,0H28.664m37.672,16.6,0.007,0.011h0l-0.007-.011M29.457,6.238c12.687,0.208,28.638,5.368,35.828,15.043l-0.051-.072c-7.215-9.629-23.12-14.764-35.777-14.97m-0.226,0,0.226,0-0.226,0m-0.075,0h0m-0.074,0h0m-0.075,0h0m-0.533,0a16.31,16.31,0,0,0-8.312,2.246l0.027-.013a16.3,16.3,0,0,1,8.285-2.234m0.457,0h0m-0.418,0h0m0.345,0h0m-0.31,0h0m0.04,0h0m0.193,0h0m-0.158,0h0m0.083,0h0m-0.041,0h0m16.2,69.69h0m0.117,0h0m0.035,0h0m-0.218,0h0m0.251,0h0m-0.318,0h0m0.352,0h0m-0.42,0h0m0.459,0h0m-0.527,0h0m0.565,0h0m0.034,0h0m0.034,0h0m0.032,0h0m0.038,0h0m0.038,0h0m0.036,0h0m0.033,0h0m0.034,0h0m0.036,0h0m0.041,0h0m0.033,0h0m0.034,0h0m0.07,0h0m0.037,0h0m0.035,0h0m0.033,0h0m0.107,0h0m0.035,0h0m0.034,0h0m0.108,0h0m0.034,0h0M9.326,54.858A47.431,47.431,0,0,0,27.283,73.7,70.518,70.518,0,0,0,44.6,75.92h0.985l0.068,0h0.107l0.1,0h0.072l0.1,0h0.038c11.628-.527,19.713-9.109,24.35-20.2A90.446,90.446,0,0,1,53.132,67.448a19.305,19.305,0,0,1-8.988,2.321h-1.4l-0.153,0H42.548c-13.1-.278-27.58-4.876-33.222-14.9M43.813,69.772h0m-0.06,0h0m0.116,0h0m-0.162,0h0m-0.045,0h0m0.255,0h0m-0.312,0h0m-0.05,0h0m0.416,0h0m-0.462,0h0m-0.046,0h0m0.563,0h0m-0.623,0h0m0.672,0h0m-0.718,0h0m-0.048,0h0m0.833,0h0m-0.878,0h0m-0.06,0h0m-0.047,0h0m-0.048,0h0m-0.066,0h0m-0.047,0h0m-0.043,0h0m-0.045,0h0m-0.076,0h0m-0.038,0h0m-0.044,0h0m-0.159,0,0.153,0-0.153,0m-0.041,0h0m10.584-2.31-0.014.007q-0.745.4-1.526,0.737h0a19.392,19.392,0,0,1-7.447,1.577,19.305,19.305,0,0,0,8.988-2.321M9.308,54.82l0.018,0.038c5.642,10.024,20.124,14.622,33.222,14.9C29.435,69.48,14.936,64.87,9.308,54.82M34.57,43.894v0.016h0V43.894m0-.016s0,0.007,0,.011,0-.008,0-0.011m0-.016s0,0.007,0,.011,0-.007,0-0.011m0-.017s0,0.008,0,.012,0-.008,0-0.012m0-.02c0,0.005,0,.01,0,0.016s0-.01,0-0.016m0-.016s0,0.007,0,.011,0-.007,0-0.011m0-.016s0,0.006,0,.009,0-.006,0-0.009m0-.016s0,0.006,0,.009,0-.006,0-0.009m0-.016v0m0-.021v0m0-.015v0m0-.015v0m0-.014v0m0-.053h0M34.575,33.426h0m0-.015v0s0,0,0,0m0-.015v0m0-.024v0m0-.016s0,0,0,.007,0,0,0-.007m0-.016s0,0.005,0,.008,0-.005,0-0.008m0-.018s0,0.007,0,.011,0-.007,0-0.011m0-.019v0m0-.016s0,0.007,0,.011,0-.007,0-0.011m0-.016s0,0.007,0,.011,0-.008,0-0.011m0-.021v0m0-3.394v0.016h0V29.855m0-.016s0,0.007,0,.011,0-.007,0-0.011m0-.016s0,0.007,0,.01,0-.007,0-0.01m0-.016s0,0.006,0,.01,0-.006,0-0.01m0-.016v0m0-.021v0m0-.016v0m0-.016v0m0-.015v0m0-.014v0m13.361-8.26H30.7a2.655,2.655,0,0,0-2.645,2.665V52.57A2.655,2.655,0,0,0,30.7,55.235h1.228A2.655,2.655,0,0,0,34.57,52.57h0a2.655,2.655,0,0,1-2.645,2.665H30.7a2.655,2.655,0,0,1-2.645-2.665V41.356h8.4a2.627,2.627,0,0,1,.758-0.111h8.029a2.665,2.665,0,0,0,0-5.33H37.215a2.622,2.622,0,0,1-.875-0.149H28.052V27.287h8.515a2.637,2.637,0,0,1,.648-0.08H47.936a2.655,2.655,0,0,0,2.645-2.665V24.114a2.655,2.655,0,0,0-2.645-2.665M34.575,33.426a2.664,2.664,0,0,0,1.764,2.339h0.009a2.662,2.662,0,0,1-1.773-2.339m0-.012s0,0.008,0,.012,0-.008,0-0.012m0-.014v0m0-.026c0,0.007,0,.015,0,0.022s0-.015,0-0.022m0-.011s0,0.006,0,.009,0-.006,0-0.009m0-.015v0.008s0-.005,0-0.008m0-.015s0,0,0,.007,0,0,0-.007m0-.015s0,0,0,0,0,0,0,0m0-.02s0,0,0,.005,0,0,0-.005m0-.016v0m0-.016s0,0,0,0,0,0,0,0m0-3.415s0,0,0,.005,0,0,0-.005m0-.017v0m0-.017s0,0,0,.007,0,0,0-.007m0-.016s0,0,0,.006,0,0,0-.006m0-.016s0,0,0,.006,0,0,0-.006m0-.023v0m0-.017v0m0-.016v0m0-.016v0m2.005-2.426H36.567a2.661,2.661,0,0,0-1.992,2.422,2.659,2.659,0,0,1,2.005-2.422m-0.013,0H28.052v8.478H36.34a2.664,2.664,0,0,1-1.764-2.339h0s0-.008,0-0.012V33.4c0-.007,0-0.015,0-0.022v0s0-.006,0-0.009,0,0,0-.007V33.348s0-.005,0-0.008,0,0,0-.007,0-.007,0-0.011,0,0,0,0V33.3s0,0,0-.005,0-.007,0-0.011V33.281s0-.008,0-0.011,0,0,0,0V33.25h0V29.872h0V29.855s0,0,0-.005,0-.007,0-0.011V29.833s0-.007,0-0.01,0,0,0-.007,0-.006,0-0.01,0,0,0-.006v-0.01s0,0,0-.006V29.709a2.661,2.661,0,0,1,1.992-2.422m-2,16.6s0,0,0,.005,0,0,0-.005m0-.017v0m0-.016s0,0,0,.006,0,0,0-.006m0-.016s0,0,0,0,0,0,0,0m0-.02s0,0,0,0,0,0,0,0m0-.017v0m0-.016v0m0-.016v0m0-.023s0,0.01,0,.014,0-.01,0-0.014m0-.016v0m0-.016v0m0-.015v0m0-.056c0,0.017,0,.034,0,0.052,0-.017,0-0.034,0-0.052m1.879-2.289h0a2.662,2.662,0,0,0-1.874,2.288,2.662,2.662,0,0,1,1.879-2.288m0,0h-8.4V52.57A2.655,2.655,0,0,0,30.7,55.235h1.228A2.655,2.655,0,0,0,34.57,52.57v-8.66h0V43.894s0,0,0-.005,0-.007,0-0.011V43.872s0-.007,0-0.011,0,0,0-.006,0-.008,0-0.012,0,0,0,0,0-.01,0-0.016,0,0,0,0,0-.007,0-0.011V43.8s0-.006,0-0.009V43.786s0-.006,0-0.009V43.761s0-.01,0-0.014V43.7c0-.017,0-0.034,0-0.052h0a2.662,2.662,0,0,1,1.874-2.288" transform="translate(1.5 -0.094)"/>
</svg>
